<svg version="1.1" id="Layer_1" xmlns="http://www.w3.org/2000/svg" xmlns:xlink="http://www.w3.org/1999/xlink" x="0px" y="0px"
	 width="100%" viewBox="0 0 688 512" enable-background="new 0 0 688 512" xml:space="preserve">
<path fill="#000000" opacity="1.000000" stroke="none" 
	d="
M510.999939,444.345581 
	C469.849915,444.343964 429.199951,444.347504 388.549957,444.335144 
	C381.276367,444.332947 376.669495,439.713776 376.656403,432.436920 
	C376.638428,422.441040 376.643646,412.445099 376.659912,402.449219 
	C376.668701,397.039948 379.744904,392.145538 384.874176,390.953766 
	C388.196228,390.181915 388.746216,388.580536 388.682495,385.766510 
	C388.576904,381.104187 388.654755,376.437683 388.660370,371.772919 
	C388.671509,362.495789 392.518066,358.669739 401.861206,358.637177 
	C409.363922,358.611023 410.207001,357.703308 409.707916,350.371185 
	C409.424286,346.204010 410.743408,342.190704 410.734070,337.991425 
	C410.616425,285.180023 410.904480,232.365891 410.387543,179.559311 
	C410.313232,171.968719 413.038605,165.057999 412.844879,157.625931 
	C412.751923,154.059158 416.901611,153.131454 418.661011,150.519577 
	C420.546478,147.720535 423.521454,145.675110 425.887512,143.174530 
	C428.249451,140.678314 431.239899,141.622726 433.906036,141.747696 
	C438.685242,141.971741 441.060181,140.586380 440.765320,135.297791 
	C440.479279,130.167007 444.948669,126.755493 446.556824,122.125313 
	C448.038696,117.858734 450.591766,113.704109 452.791046,109.562065 
	C454.727814,105.914413 457.548126,102.947014 460.524261,100.206932 
	C465.241852,95.863609 470.069244,91.664284 473.958649,86.506363 
	C476.047729,83.735909 479.810791,83.601845 482.592499,82.296799 
	C487.253174,80.110214 491.396088,75.659180 497.373138,76.592644 
	C498.286224,76.735237 499.730164,76.581566 500.195862,75.989037 
	C503.554016,71.716400 508.218689,72.692787 512.620178,72.671448 
	C521.616272,72.627838 530.612732,72.666588 539.609009,72.652122 
	C542.313721,72.647774 544.970642,72.644531 546.703064,75.296616 
	C547.398865,76.361794 548.628296,76.899826 549.765259,76.591049 
	C555.873535,74.932167 559.776001,79.996529 564.667358,81.762230 
	C571.294556,84.154549 576.796448,89.072693 581.615906,94.465736 
	C584.146667,97.297661 586.834473,100.020958 589.684143,102.528854 
	C594.133606,106.444794 595.632812,112.115120 598.527832,116.934402 
	C602.658875,123.811165 604.885925,131.565674 607.388794,139.151382 
	C608.132080,141.403946 609.778870,141.571533 611.701050,141.664505 
	C621.010132,142.114655 626.966858,146.923843 631.938293,154.831436 
	C635.531189,160.546326 635.117371,166.087555 635.356567,171.964249 
	C637.599121,227.060181 635.749207,282.179810 636.282593,337.285858 
	C636.333801,342.576721 635.734131,347.878510 635.335571,353.167603 
	C635.022400,357.323120 636.937439,358.972382 640.963013,358.674438 
	C642.785461,358.539581 644.626465,358.653198 646.459045,358.657715 
	C655.086853,358.679077 659.337708,362.945129 659.347473,371.594666 
	C659.353088,376.592590 659.420349,381.591736 659.329651,386.587982 
	C659.283203,389.150574 659.986145,390.406189 662.880371,390.799530 
	C667.186340,391.384827 671.320435,396.948151 671.334961,401.454498 
	C671.368896,411.950104 671.365540,422.445923 671.340027,432.941528 
	C671.324219,439.432129 666.443420,444.329865 659.938049,444.332947 
	C621.287231,444.351227 582.636475,444.343689 543.985657,444.344788 
	C533.157104,444.345093 522.328491,444.345154 510.999939,444.345581 
M615.647766,329.497589 
	C615.646729,279.832123 615.574707,230.166428 615.748596,180.501587 
	C615.767029,175.233154 612.979431,170.616180 613.359924,165.353577 
	C613.465515,163.892807 611.890869,162.747391 610.271484,162.528061 
	C607.489868,162.151321 604.671692,161.571884 601.897888,161.701050 
	C594.420105,162.049271 585.800171,154.085907 585.596191,146.591919 
	C585.517517,143.702988 586.962891,140.207108 584.315979,138.053177 
	C581.836243,136.035248 581.544983,133.739685 581.639160,131.013077 
	C581.697021,129.337173 581.552673,127.777016 580.342834,126.352402 
	C577.196716,122.647659 573.829102,119.153961 571.500061,114.754692 
	C568.095459,108.323753 560.584778,106.512726 555.800659,101.530350 
	C553.565308,99.202354 550.709351,97.872581 547.267761,98.294762 
	C545.719177,98.484726 544.002136,98.040848 543.110474,96.934082 
	C540.868103,94.150726 537.933899,94.349327 534.929810,94.381081 
	C531.763550,94.414543 528.578125,94.165016 525.433716,94.428757 
	C517.741638,95.073944 509.443878,91.979126 502.571381,97.989922 
	C502.247864,98.272873 501.599792,98.328239 501.126740,98.275475 
	C492.476501,97.310783 488.704620,105.652840 481.930115,108.507584 
	C477.384949,110.422882 475.872406,116.793617 472.741180,120.282913 
	C465.441650,128.417191 461.688995,136.923599 462.351624,147.607086 
	C462.528717,150.461884 461.443207,152.352966 459.315125,154.464645 
	C453.512604,160.222565 446.626038,162.392685 438.745331,162.380569 
	C437.437012,162.378555 435.256592,162.060349 435.087738,163.225327 
	C434.374908,168.142349 430.141144,171.401001 430.167603,176.940643 
	C430.445557,235.104614 430.338959,293.270416 430.344055,351.435699 
	C430.344696,358.620575 430.359253,358.643494 437.531647,358.644562 
	C494.196991,358.653015 550.862305,358.652924 607.527649,358.652740 
	C613.519897,358.652710 617.638855,354.391205 616.485413,348.393219 
	C615.333374,342.402313 615.929810,336.455811 615.647766,329.497589 
M509.500061,409.357300 
	C473.350861,409.312805 437.201508,409.300934 401.052826,409.139618 
	C398.968994,409.130341 397.620758,409.538818 397.523712,411.478180 
	C397.342468,415.099854 396.240997,419.097107 398.085052,422.263367 
	C399.718048,425.067230 402.940247,422.037628 405.491577,422.593018 
	C407.240723,422.973785 409.140625,422.660156 410.973114,422.660187 
	C486.272400,422.661346 561.571655,422.653809 636.870972,422.692993 
	C640.341736,422.694794 643.847412,422.186890 647.295776,423.184967 
	C649.438721,423.805267 650.571045,422.606232 650.557800,420.622864 
	C650.533569,416.996124 651.912048,412.885742 649.862305,409.873535 
	C647.962708,407.081879 644.285339,410.172821 641.433716,409.371216 
	C640.816101,409.197571 640.108154,409.345123 639.441772,409.345184 
	C596.461243,409.349457 553.480652,409.353729 509.500061,409.357300 
M447.499908,389.651215 
	C510.740723,389.651215 573.981567,389.651215 637.417603,389.651215 
	C637.609192,385.681915 638.164917,381.953857 637.075623,378.375702 
	C563.149597,378.375702 489.531067,378.382904 415.912537,378.363129 
	C409.449677,378.361389 408.496735,379.324188 409.434814,385.844482 
	C409.637390,387.252472 410.323914,388.590851 410.682434,389.650726 
	C422.885956,389.650726 434.692902,389.650726 447.499908,389.651215 
z"/>
<path fill="#000000" opacity="1.000000" stroke="none" 
	d="
M49.674187,358.680786 
	C53.523163,359.876282 55.165779,358.418762 56.085896,355.080933 
	C56.864197,352.257568 56.622986,349.460297 56.625027,346.660797 
	C56.666859,289.338257 56.702011,232.015579 56.601265,174.693176 
	C56.590950,168.824509 58.412125,163.294174 59.277359,157.633575 
	C59.997555,152.921921 65.994850,150.704285 68.777649,146.657654 
	C72.020729,141.941681 76.469231,140.994446 81.684425,141.639633 
	C86.329781,142.214310 88.087257,139.966599 87.668701,135.505829 
	C87.428741,132.948364 88.424683,131.128632 90.144409,128.950378 
	C92.529053,125.929901 93.708000,121.800812 95.216339,118.195076 
	C98.624962,110.046692 103.044632,103.030952 109.926010,97.511162 
	C111.976578,95.866325 114.140480,94.157097 115.610779,92.033173 
	C119.994034,85.701317 127.488480,84.344978 133.180252,80.310829 
	C138.443069,76.580704 145.156555,77.987434 149.858658,73.695709 
	C151.242294,72.432823 153.297150,72.655045 155.142303,72.657280 
	C165.307022,72.669579 175.472015,72.696228 185.636429,72.637016 
	C188.580109,72.619865 191.271469,72.974541 193.296188,75.424095 
	C193.690277,75.900848 194.396622,76.478928 194.915634,76.439560 
	C204.134689,75.740211 210.434128,82.623512 218.188263,85.661964 
	C222.118301,87.201942 224.963882,91.560402 228.238708,94.708138 
	C232.022217,98.344810 235.744766,102.045059 239.477371,105.734306 
	C240.054718,106.304947 240.832703,106.884697 241.028946,107.595276 
	C242.604813,113.301308 246.437744,118.006714 248.459167,123.263908 
	C250.223083,127.851372 253.041565,132.406647 253.302734,137.553711 
	C253.455185,140.557892 254.789505,141.513458 257.644775,141.690735 
	C271.956085,142.579300 282.326996,153.731918 282.331909,168.160690 
	C282.352692,229.315872 282.345581,290.471069 282.351105,351.626251 
	C282.351746,358.607208 282.360382,358.722504 289.490112,358.627197 
	C295.343048,358.549011 300.407654,359.979736 304.523621,364.451294 
	C306.069305,366.130493 306.356293,367.854980 306.347595,369.890656 
	C306.322632,375.722809 306.377930,381.555420 306.323730,387.387177 
	C306.301544,389.774872 306.578400,391.353912 309.642731,391.791565 
	C314.330292,392.461060 318.313385,397.606110 318.330658,402.266571 
	C318.370117,412.931091 318.372559,423.595947 318.335693,434.260468 
	C318.314880,440.273193 313.190308,445.307739 307.048340,445.322418 
	C291.884613,445.358673 276.720703,445.335754 261.556885,445.335449 
	C186.071045,445.333984 110.585213,445.333832 35.099373,445.327881 
	C27.142153,445.327271 22.676277,440.883240 22.669867,432.981384 
	C22.661755,422.983276 22.654369,412.985107 22.675381,402.987030 
	C22.687569,397.188171 25.912970,392.860809 31.592537,391.719452 
	C34.307518,391.173798 34.656345,389.676880 34.648243,387.501251 
	C34.629631,382.502319 34.651775,377.503204 34.657833,372.504181 
	C34.667526,364.506622 37.558090,360.953247 45.361485,359.372955 
	C46.657337,359.110504 47.965561,358.909149 49.674187,358.680786 
M113.785988,126.435936 
	C111.378860,128.432007 113.550430,132.316025 110.784676,134.035660 
	C108.357536,135.544754 108.303413,137.742233 108.329941,140.123856 
	C108.363342,143.122101 108.303246,146.121368 108.338028,149.119568 
	C108.363976,151.355301 107.754585,152.955627 105.956909,154.715286 
	C100.507652,160.049286 93.976189,162.023697 86.668419,162.374878 
	C84.726395,162.468216 81.506393,161.774185 81.256943,163.707443 
	C80.594833,168.838669 76.092377,172.013702 76.127068,177.780319 
	C76.474884,235.585434 76.341492,293.393433 76.348190,351.200623 
	C76.349052,358.638916 76.361000,358.646942 84.071220,358.647400 
	C139.379562,358.650482 194.687897,358.649139 249.996231,358.653870 
	C252.161423,358.654053 254.430435,358.295166 256.468781,358.816406 
	C259.993774,359.717865 261.002991,357.778473 262.341095,355.158417 
	C264.956604,350.037201 262.607025,344.988037 262.516632,339.964325 
	C261.490540,282.949890 265.090820,225.888763 260.805573,168.899200 
	C260.456329,164.254623 258.535004,162.718979 254.570557,162.438065 
	C252.580551,162.297073 250.574219,162.379547 248.575256,162.373077 
	C240.389008,162.346588 232.748901,154.499786 232.608475,146.204865 
	C232.565002,143.638260 233.921432,140.347504 231.520889,138.648727 
	C228.836624,136.749161 228.543167,134.517883 228.658661,131.796890 
	C228.731995,130.069244 228.332932,128.392120 227.301147,127.079849 
	C224.157257,123.081268 220.730087,119.334435 218.353088,114.739311 
	C214.911041,108.085266 206.982391,106.659645 202.262619,101.383827 
	C199.951248,98.800133 196.781097,97.917976 193.269363,98.294006 
	C191.709930,98.460991 190.057693,97.840179 189.196411,96.729401 
	C187.365906,94.368668 184.985077,94.385056 182.461029,94.389359 
	C174.298080,94.403297 166.135040,94.369774 157.972168,94.396622 
	C156.173981,94.402542 154.114120,93.973763 152.834137,95.640694 
	C150.832260,98.247772 148.122116,98.509087 145.225052,98.356636 
	C143.111725,98.245415 141.576340,99.431389 139.771561,100.242775 
	C136.616379,101.661263 136.014679,105.646713 132.264313,106.443497 
	C126.942024,107.574226 122.728638,111.609856 121.159279,116.098221 
	C119.666756,120.366852 116.576859,122.661858 113.785988,126.435936 
M44.861370,410.389526 
	C43.579082,414.563843 45.025700,418.861908 43.600761,423.071167 
	C128.522324,423.071167 212.756500,423.071167 297.035278,423.071167 
	C296.888153,420.503448 296.706909,418.533875 296.674591,416.561829 
	C296.556763,409.374359 296.575500,409.355499 289.195496,409.354797 
	C209.763596,409.347168 130.331696,409.342712 50.899807,409.362793 
	C49.089760,409.363251 47.279781,409.660767 44.861370,410.389526 
M116.500000,379.030640 
	C96.597145,379.030640 76.694298,379.030640 56.858467,379.030640 
	C55.229462,390.639313 55.229462,390.645081 66.239220,390.645508 
	C136.016968,390.648224 205.794724,390.648254 275.572479,390.649109 
	C285.243683,390.649200 285.252960,390.648468 284.579315,380.995087 
	C284.536407,380.380402 284.180908,379.787567 283.917389,379.031128 
	C228.359680,379.031128 172.929840,379.031128 116.500000,379.030640 
z"/>
<path fill="#000000" opacity="1.000000" stroke="none" 
	d="
M514.083374,247.204208 
	C514.061646,251.994522 514.078552,256.314697 514.004028,260.633301 
	C513.974609,262.342224 513.739868,264.063721 511.432983,264.160583 
	C508.716522,264.274689 508.855835,262.315247 508.631287,260.449127 
	C508.389465,258.439270 509.645050,255.965485 507.212158,254.548172 
	C504.039978,252.700165 500.543182,254.685852 500.321503,258.386078 
	C500.271881,259.214630 500.285217,260.046844 500.266388,260.877350 
	C500.225403,262.684082 499.869476,264.280365 497.563232,264.187836 
	C495.344604,264.098816 494.903717,262.473297 494.882172,260.709290 
	C494.817383,255.393509 494.785034,250.076538 494.825928,244.760681 
	C494.841309,242.760010 494.855713,240.407013 497.635742,240.330032 
	C500.644501,240.246674 500.458038,242.740891 500.267487,244.657410 
	C499.874725,248.607956 501.421814,250.156021 505.374329,249.724365 
	C507.637238,249.477219 508.444305,248.467178 508.694519,246.261505 
	C508.938049,244.114319 507.231598,240.368896 511.213531,240.458328 
	C515.209534,240.548065 513.678223,244.345230 514.083374,247.204208 
z"/>
<path fill="#000000" opacity="1.000000" stroke="none" 
	d="
M467.196198,240.894165 
	C470.440308,248.478653 473.392609,255.829971 476.376831,263.260803 
	C473.045868,264.896820 470.899963,264.551453 469.861298,261.482025 
	C469.009949,258.966217 467.257416,258.409058 464.864746,258.316223 
	C462.451996,258.222595 461.120605,259.239990 460.449768,261.421936 
	C459.545563,264.363098 457.669617,264.736847 454.370667,263.324921 
	C457.168304,256.073608 459.829895,248.972839 462.672211,241.945160 
	C463.413055,240.113434 465.130280,239.906265 467.196198,240.894165 
z"/>
<path fill="#000000" opacity="1.000000" stroke="none" 
	d="
M562.080627,264.357910 
	C557.608582,264.863556 555.753174,263.221893 555.933411,259.070129 
	C556.127991,254.586914 556.119080,250.090225 556.050903,245.601669 
	C555.992188,241.732788 557.431152,239.603622 561.619385,239.928177 
	C563.603333,240.081924 565.611450,239.897339 567.602661,239.991852 
	C569.097656,240.062820 570.820496,240.174301 570.925842,242.195923 
	C571.042847,244.440552 569.204834,244.216766 567.753235,244.326706 
	C566.926025,244.389343 566.089233,244.318741 565.259888,244.364304 
	C563.798340,244.444611 562.022583,244.179443 561.936096,246.381775 
	C561.862610,248.254288 562.572876,249.496445 564.764160,249.690613 
	C566.358765,249.831940 568.982544,248.904266 568.931274,251.792175 
	C568.885925,254.351440 566.508423,254.066635 564.737488,254.170731 
	C562.882507,254.279755 561.462708,254.704315 561.465820,256.977478 
	C561.469360,259.575378 563.190735,259.862946 565.171204,259.876709 
	C565.836426,259.881317 566.505798,259.852386 567.165833,259.916016 
	C568.917480,260.084900 571.299011,259.671509 571.251526,262.347473 
	C571.199280,265.294983 568.616760,264.109833 567.032410,264.315948 
	C565.560425,264.507538 564.044067,264.357910 562.080627,264.357910 
z"/>
<path fill="#000000" opacity="1.000000" stroke="none" 
	d="
M573.684021,249.132187 
	C573.113831,241.660004 578.421448,237.979340 585.264954,240.659149 
	C586.495239,241.140900 588.007812,241.427429 587.656982,243.227890 
	C587.306519,245.026932 586.049866,245.615005 584.296936,245.198227 
	C582.615845,244.798553 580.403503,243.395660 579.678467,245.995026 
	C578.969238,248.537735 581.632751,249.059998 583.299255,249.974884 
	C588.253235,252.694550 589.826355,256.784210 587.448853,260.905121 
	C585.410034,264.439056 578.196716,265.668701 574.462036,263.165497 
	C573.406494,262.458008 572.623230,261.692810 573.087341,260.336853 
	C573.618469,258.785248 574.760437,258.405029 576.251282,258.883881 
	C576.881714,259.086395 577.484009,259.412811 578.127075,259.532745 
	C579.787292,259.842316 581.637512,260.165497 582.367859,258.124786 
	C583.023865,256.291779 581.469666,255.474579 580.159729,254.741165 
	C577.714050,253.371826 574.981750,252.369797 573.684021,249.132187 
z"/>
<path fill="#000000" opacity="1.000000" stroke="none" 
	d="
M485.000793,259.258423 
	C485.992188,259.572601 486.646576,259.673248 487.293030,259.810913 
	C489.040680,260.183044 492.047729,258.771790 492.071320,261.749786 
	C492.098663,265.201965 488.797241,264.308350 486.709991,264.344818 
	C480.154022,264.459473 476.869904,260.819763 476.666779,253.535324 
	C476.437500,245.311127 480.092285,240.181778 486.430237,239.805466 
	C488.337830,239.692200 490.027344,240.298889 491.580261,241.319382 
	C492.457642,241.895996 493.102112,242.720901 492.610779,243.821152 
	C492.191589,244.759903 491.326630,245.665131 490.315704,245.388138 
	C487.469971,244.608429 484.614838,243.726212 483.250122,247.418991 
	C481.752991,251.470169 481.476837,255.511612 485.000793,259.258423 
z"/>
<path fill="#000000" opacity="1.000000" stroke="none" 
	d="
M526.365356,262.488251 
	C526.149414,256.101044 526.041748,250.147491 526.068420,244.194534 
	C526.076721,242.339722 526.413269,240.302963 528.907715,240.332077 
	C531.624268,240.363800 531.278564,242.582947 531.322021,244.355606 
	C531.378784,246.671463 531.390564,248.991241 531.325623,251.306641 
	C531.194214,255.991379 530.359375,261.106049 537.892029,260.154083 
	C538.865051,260.031128 539.799377,260.765961 539.933411,261.932831 
	C540.062500,263.055542 539.554993,264.086426 538.413757,264.068176 
	C534.427734,264.004517 530.246094,265.730988 526.365356,262.488251 
z"/>
<path fill="#000000" opacity="1.000000" stroke="none" 
	d="
M541.043579,246.288818 
	C541.123474,244.836349 541.145569,243.838821 541.285706,242.858185 
	C541.529602,241.151627 542.412964,240.113647 544.288879,240.348602 
	C546.004639,240.563507 546.317261,241.835434 546.329895,243.245911 
	C546.364136,247.056870 546.511414,250.874908 546.335693,254.677261 
	C546.181396,258.013245 546.871643,260.174805 550.846497,260.000763 
	C552.599487,259.924011 555.001404,260.025757 554.732605,262.619812 
	C554.497314,264.890930 552.207520,264.259918 550.667297,264.329987 
	C540.928650,264.773102 540.929688,264.752594 540.999207,255.202499 
	C541.019714,252.385498 541.026001,249.568405 541.043579,246.288818 
z"/>
<path fill="#000000" opacity="1.000000" stroke="none" 
	d="
M522.320923,243.442444 
	C522.335388,249.362473 522.362244,254.830063 522.314636,260.296997 
	C522.299133,262.080231 522.537170,264.206421 519.768616,264.183533 
	C517.453064,264.164368 517.179932,262.353210 517.173462,260.685822 
	C517.151062,254.891235 517.216370,249.095093 517.353760,243.302032 
	C517.385193,241.977600 517.796143,240.619232 519.503723,240.406891 
	C521.439575,240.166183 522.210144,241.218445 522.320923,243.442444 
z"/>
<path fill="#000000" opacity="1.000000" stroke="none" 
	d="
M139.105103,253.941620 
	C139.067413,250.960007 138.986542,248.464859 139.006332,245.970535 
	C139.023010,243.868607 138.374298,241.061279 141.040909,240.406525 
	C145.295212,239.361954 149.710236,239.440826 153.390594,242.376053 
	C155.601776,244.139557 156.253464,247.149628 154.831360,249.152908 
	C152.412216,252.560745 153.649948,255.151855 155.190140,258.123962 
	C156.011490,259.708923 156.447083,261.493774 157.210770,263.616394 
	C148.864151,266.352875 151.127899,255.115845 145.229935,255.225006 
	C143.656616,256.848511 144.578369,258.963989 144.316879,260.851562 
	C144.110641,262.340240 144.248993,263.976715 142.132690,264.136139 
	C139.798172,264.312042 139.378708,262.618530 139.247574,260.909088 
	C139.082565,258.757904 139.142624,256.589447 139.105103,253.941620 
M149.214630,246.188202 
	C148.247986,244.912399 146.965881,243.773163 145.480713,244.908157 
	C143.795212,246.196228 144.129257,248.059097 145.173477,249.955856 
	C147.505524,250.102051 149.537445,249.988617 149.214630,246.188202 
z"/>
<path fill="#000000" opacity="1.000000" stroke="none" 
	d="
M161.669968,262.608704 
	C154.983856,254.588852 157.085480,242.918655 165.287796,240.312653 
	C167.436539,239.629974 169.499115,239.661926 171.623627,240.386124 
	C177.656509,242.442566 180.362152,250.209396 177.632431,257.748688 
	C175.319870,264.135742 169.368515,266.077362 161.669968,262.608704 
M172.326279,256.554413 
	C172.452316,255.575607 172.677017,254.597733 172.686401,253.617813 
	C172.718155,250.305435 172.951843,246.858307 169.387665,244.936478 
	C167.872314,244.119400 166.393829,244.589081 165.351273,245.802719 
	C162.842194,248.723526 162.863022,252.259186 163.735611,255.663086 
	C164.929260,260.319427 168.450165,260.910156 172.326279,256.554413 
z"/>
<path fill="#000000" opacity="1.000000" stroke="none" 
	d="
M110.450294,258.412048 
	C107.998466,258.693481 107.611603,260.439484 106.987419,261.953064 
	C106.036339,264.259338 104.399368,264.775848 101.900604,263.787903 
	C101.175476,260.190308 103.478455,257.264069 104.533783,254.094025 
	C105.843285,250.160553 107.378929,246.275864 109.163254,242.535324 
	C110.611618,239.499054 113.566322,239.230881 114.755310,242.088654 
	C117.661736,249.074326 120.817909,256.012360 122.601654,263.407257 
	C119.551811,265.054321 117.605057,264.307434 116.691826,261.605133 
	C115.671364,258.585510 113.562561,258.040619 110.450294,258.412048 
z"/>
<path fill="#000000" opacity="1.000000" stroke="none" 
	d="
M218.845383,243.539978 
	C218.850540,247.462128 218.604263,250.972794 218.848679,254.448944 
	C219.018463,256.863525 219.291977,259.815308 222.838501,259.711823 
	C226.193741,259.613892 226.685898,257.111359 226.704803,254.408554 
	C226.729263,250.910767 226.751434,247.412888 226.793549,243.915283 
	C226.817673,241.912674 227.258331,240.133270 229.783981,240.264603 
	C232.046982,240.382294 232.266800,242.129135 232.272171,243.876724 
	C232.283966,247.707306 232.435135,251.549316 232.198425,255.366150 
	C231.809891,261.631195 228.346466,264.618988 222.076614,264.446838 
	C216.367950,264.290100 213.767029,261.426086 213.644318,255.018509 
	C213.574173,251.355377 213.609085,247.689270 213.657791,244.025314 
	C213.677246,242.561447 213.471191,240.824081 215.462234,240.401108 
	C217.577316,239.951782 218.512772,241.192886 218.845383,243.539978 
z"/>
<path fill="#000000" opacity="1.000000" stroke="none" 
	d="
M93.548119,255.673248 
	C91.696800,257.545319 92.433846,259.650238 92.182632,261.567169 
	C91.950333,263.339722 91.136154,264.279541 89.276878,264.176544 
	C87.677620,264.087921 86.812675,263.224884 86.803673,261.670959 
	C86.767220,255.378098 86.768723,249.084808 86.798439,242.791870 
	C86.804535,241.501236 87.515320,240.492966 88.790512,240.281143 
	C92.947701,239.590576 97.173454,239.384506 100.638603,242.230087 
	C102.806572,244.010452 103.377991,246.661194 102.632164,249.474396 
	C101.436913,253.982681 97.849205,254.998840 93.548119,255.673248 
M92.291595,246.887344 
	C92.403618,248.443649 91.836670,250.434174 94.344719,250.585358 
	C95.632263,250.662994 96.481049,249.848022 96.899895,248.658340 
	C97.403709,247.227325 96.941917,246.027237 95.725937,245.233582 
	C94.316490,244.313660 92.942245,244.011810 92.291595,246.887344 
z"/>
<path fill="#000000" opacity="1.000000" stroke="none" 
	d="
M237.593170,241.455536 
	C240.673431,239.573334 243.514099,239.389343 246.506378,240.566040 
	C247.915283,241.120117 249.644501,241.412369 249.045563,243.473099 
	C248.542862,245.202698 247.108200,245.627426 245.447556,245.124100 
	C243.850708,244.640106 241.867050,243.755875 241.086502,245.774551 
	C240.193939,248.082794 242.601181,248.727188 244.087433,249.597107 
	C249.848984,252.969406 251.420120,256.051697 249.337692,260.112000 
	C247.212418,264.255829 241.516663,265.758820 236.671036,263.485291 
	C235.257370,262.821991 233.836426,262.177277 234.525803,260.218933 
	C235.195648,258.316040 236.615250,258.408630 238.186203,258.986908 
	C238.958054,259.271027 239.750183,259.560974 240.557541,259.674011 
	C241.912537,259.863708 243.329910,259.839020 243.949326,258.316589 
	C244.577225,256.773407 243.604538,255.811310 242.394989,255.083847 
	C241.401581,254.486404 240.352295,253.982605 239.348724,253.401169 
	C233.970016,250.284958 233.336411,246.700119 237.593170,241.455536 
z"/>
<path fill="#000000" opacity="1.000000" stroke="none" 
	d="
M194.020523,240.502106 
	C195.667206,241.375046 197.390472,241.979767 196.525696,243.923569 
	C195.792007,245.572739 194.340271,245.603821 192.693542,245.056534 
	C188.228867,243.572708 187.090790,246.702240 186.457977,249.973083 
	C185.451477,255.175598 187.295593,259.157623 190.762177,259.747375 
	C191.735611,259.912933 192.755173,259.815247 193.753708,259.823608 
	C195.070374,259.834625 196.057571,260.302124 196.179794,261.750732 
	C196.301804,263.196747 195.310471,263.747803 194.123825,264.151703 
	C188.426498,266.090912 182.761551,263.107117 181.146683,257.294128 
	C178.224289,246.774338 184.186752,238.705856 194.020523,240.502106 
z"/>
<path fill="#000000" opacity="1.000000" stroke="none" 
	d="
M131.340546,253.109863 
	C131.330429,256.068970 131.343048,258.552856 131.302231,261.035858 
	C131.276627,262.592255 131.111740,264.065125 129.003983,264.159302 
	C126.731720,264.260773 126.143768,262.776855 126.098709,260.992493 
	C125.994225,256.855774 126.009598,252.715836 125.995804,248.577133 
	C125.988693,246.444702 125.701790,244.562286 123.004745,244.288467 
	C121.714958,244.157532 120.805229,243.551010 120.955498,242.056717 
	C121.075638,240.861816 121.967987,240.239151 122.961182,240.213898 
	C127.089378,240.109024 131.222076,240.104645 135.351334,240.172501 
	C136.379837,240.189407 137.243164,240.802109 137.315262,242.013138 
	C137.367371,242.888321 137.123642,243.960037 136.233536,243.984726 
	C129.720062,244.165436 131.632874,249.005844 131.340546,253.109863 
z"/>
<path fill="#000000" opacity="1.000000" stroke="none" 
	d="
M204.327179,248.080292 
	C204.325714,250.377136 204.490662,252.217010 204.288696,254.015717 
	C203.835083,258.056122 204.965134,260.431824 209.584900,260.068512 
	C211.068039,259.951874 212.778076,260.412628 212.603775,262.476532 
	C212.456711,264.218323 210.910568,264.173828 209.577423,264.326935 
	C199.521240,265.481537 198.818436,264.861633 198.839569,254.793396 
	C198.846176,251.647781 198.758636,248.500473 198.837173,245.357010 
	C198.889343,243.269852 198.504593,240.551376 201.573868,240.407608 
	C204.944809,240.249725 204.138885,243.114578 204.311462,245.122208 
	C204.382111,245.944061 204.325684,246.776840 204.327179,248.080292 
z"/>
</svg>