<svg version="1.1" id="Layer_1" xmlns="http://www.w3.org/2000/svg" xmlns:xlink="http://www.w3.org/1999/xlink" x="0px" y="0px"
	 width="100%" viewBox="0 0 512 976" enable-background="new 0 0 512 976" xml:space="preserve">
<path fill="#000000" opacity="1.000000" stroke="none" 
	d="
M1.000000,707.463196 
	C12.043934,693.078613 14.739956,676.190857 17.512657,659.451050 
	C21.328531,636.413269 21.729895,613.077942 22.562609,589.804688 
	C23.297077,569.277222 22.520075,548.900574 16.499647,528.973328 
	C14.090329,520.998657 13.782847,512.575623 13.790202,504.218414 
	C13.807947,484.052277 13.901875,463.885345 13.751800,443.720337 
	C13.684371,434.660156 16.411299,427.267151 23.718370,421.417358 
	C33.134361,413.879242 39.540806,404.583191 42.832401,392.427277 
	C51.695953,359.694092 66.866562,330.073761 89.498672,304.483429 
	C113.522842,277.319061 143.185577,258.989563 177.423584,247.713272 
	C187.225449,244.485016 197.286346,242.233414 207.792358,240.247726 
	C207.894028,234.942261 206.735550,229.586929 209.891891,224.749619 
	C212.804855,220.285294 217.099197,217.452377 221.578064,214.023453 
	C214.662186,200.493729 207.785324,187.032227 200.901154,173.574448 
	C189.676514,151.631470 178.462097,129.683212 167.207840,107.755424 
	C164.766785,102.999275 165.397186,99.042976 169.197617,95.100952 
	C193.707703,69.677788 218.102554,44.143448 242.519943,18.630987 
	C247.932922,12.975237 253.284790,7.261011 258.832397,1.286856 
	C262.030609,1.000000 265.061188,1.000000 268.787933,1.227169 
	C271.201141,3.022385 273.016174,4.496621 274.620667,6.172428 
	C302.948395,35.759007 331.253448,65.367279 359.554993,94.978920 
	C364.130493,99.766190 364.530853,102.505013 361.535248,108.364738 
	C344.179749,142.313690 326.858215,176.280228 309.383179,210.167542 
	C307.730743,213.371872 308.048004,214.989075 311.110016,216.975082 
	C317.037140,220.819412 322.023682,225.872650 321.224670,233.555923 
	C320.624237,239.329636 322.935883,240.709122 328.047058,241.735321 
	C366.487305,249.453171 400.467651,266.129333 428.858246,293.439941 
	C458.225159,321.689697 476.438843,356.469147 487.149902,395.371185 
	C489.852448,405.186859 495.399811,412.692841 502.625702,419.277374 
	C506.320343,422.644073 510.189178,425.796631 513.000000,430.000000 
	C513.000000,462.687561 513.000000,495.375122 512.851318,528.865723 
	C508.425507,543.214661 506.286316,557.034485 506.292786,571.295166 
	C506.302216,592.076782 506.983429,612.832397 508.485992,633.539124 
	C509.251160,644.083801 510.057861,654.721985 513.000000,665.000000 
	C513.000000,680.354248 513.000000,695.708435 513.000000,711.531372 
	C506.746918,705.106812 504.306305,696.408386 501.791504,687.814270 
	C496.291809,669.019592 494.397034,649.630615 492.782501,630.218262 
	C490.986023,608.618774 490.656006,586.969849 490.878540,565.308899 
	C490.992096,554.258301 492.696411,543.429443 495.807007,532.840210 
	C498.216980,524.635803 499.539398,516.249329 499.606506,507.748077 
	C499.776184,486.252045 499.596985,464.753418 499.725647,443.256836 
	C499.750671,439.074707 498.549103,436.017365 495.136993,433.404541 
	C481.125061,422.674591 474.741943,407.668823 469.535278,391.151794 
	C447.508179,321.275543 401.858948,275.536499 329.786224,257.867493 
	C322.032928,255.966736 314.149750,254.596268 306.137115,254.176483 
	C301.687531,253.943375 297.811279,252.648544 296.672455,247.677490 
	C295.581116,242.913742 297.968567,239.806213 301.792175,237.293610 
	C306.790710,234.008942 306.764679,233.032928 301.923004,229.574722 
	C300.303040,228.417648 298.553619,227.425858 296.801208,226.472885 
	C289.666077,222.592773 288.103729,217.825134 291.868469,210.267929 
	C296.771027,200.426712 301.852783,190.674713 306.867767,180.889603 
	C319.250031,156.729507 331.579529,132.541946 344.091125,108.448997 
	C345.845123,105.071465 345.498199,102.830551 342.882202,100.134239 
	C328.265015,85.068253 313.807556,69.847336 299.271790,54.702160 
	C289.005676,44.005638 278.553558,33.482140 268.501770,22.588640 
	C265.331055,19.152443 263.513611,19.065559 260.309082,22.470709 
	C242.158569,41.757565 223.811859,60.859886 205.514984,80.008820 
	C199.300079,86.513145 193.176147,93.114326 186.735901,99.389259 
	C183.437149,102.603355 183.231812,105.314346 185.357346,109.411270 
	C202.538895,142.528290 219.479782,175.770142 236.502380,208.969650 
	C241.198853,218.129227 239.975006,222.136780 230.912292,227.148438 
	C230.038528,227.631622 229.178452,228.143188 228.337357,228.681183 
	C221.920120,232.785828 221.849945,233.539032 227.995682,237.716141 
	C231.528763,240.117508 233.324554,243.223251 232.444473,247.468079 
	C231.403198,252.490295 227.433243,253.792542 223.063339,254.138870 
	C205.498062,255.531067 188.612457,259.752502 172.222046,266.106934 
	C126.395645,283.873474 93.383514,315.419952 71.910896,359.378906 
	C65.091980,373.338654 59.986500,387.906311 55.865540,402.882324 
	C52.467598,415.230835 44.490242,424.650360 34.740025,432.523438 
	C30.874550,435.644684 29.193007,439.024994 29.242277,444.017181 
	C29.449492,465.012543 29.296431,486.011230 29.349106,507.008484 
	C29.367117,514.189026 30.057970,521.362915 32.220131,528.207275 
	C38.974567,549.588806 38.641945,571.596558 38.031040,593.567871 
	C37.374313,617.187073 36.303787,640.808716 32.378311,664.181152 
	C29.610909,680.658508 26.220278,696.947693 17.197012,711.405945 
	C15.711968,713.785400 16.785955,715.431213 18.234016,717.204346 
	C36.360180,739.398926 54.461933,761.613403 72.581795,783.813110 
	C97.020760,813.754822 121.461586,843.694946 145.917664,873.622681 
	C162.255539,893.615906 178.613235,913.593018 194.996704,933.548889 
	C195.893997,934.641785 196.461975,936.179810 198.652206,936.626038 
	C198.652206,932.560364 198.808777,928.623291 198.626648,924.701843 
	C197.498398,900.408630 197.115448,876.097351 196.650070,851.786133 
	C196.063843,821.160645 195.664047,790.524719 194.494858,759.919556 
	C193.477844,733.298035 193.023514,706.671143 192.292145,680.047302 
	C192.100281,673.062622 191.626801,666.065369 191.793121,659.084656 
	C191.952225,652.406738 189.150009,648.129150 183.195297,645.296692 
	C166.498642,637.354553 149.886871,629.233521 133.257812,621.149719 
	C120.524773,614.959839 107.803375,608.745544 95.102661,602.489624 
	C89.031937,599.499268 85.697968,594.581543 85.714287,587.770142 
	C85.758156,569.459839 85.596390,551.141846 86.635269,532.850098 
	C87.249146,522.041382 94.242035,518.026367 104.188667,522.696106 
	C121.685692,530.910583 139.456589,538.448853 157.670197,544.949402 
	C181.870316,553.586548 206.494720,560.575195 231.900986,564.655518 
	C239.477692,565.872314 242.877060,569.508118 242.259750,577.266174 
	C241.098694,591.857483 239.381363,606.405823 237.812454,620.963074 
	C235.691116,640.646118 233.495209,660.321167 231.324371,679.998901 
	C230.120377,690.912476 228.942734,701.829163 227.658890,712.733398 
	C227.378159,715.117920 227.178345,717.261169 228.972153,719.274780 
	C240.275467,731.963501 251.507416,744.715759 262.783020,757.429260 
	C263.203583,757.903442 263.830963,758.194214 264.810486,758.888306 
	C269.415222,753.799255 274.008057,748.809082 278.504852,743.733765 
	C285.464691,735.878601 292.275909,727.889893 299.330627,720.121765 
	C301.497070,717.736145 301.787933,715.269409 301.454895,712.317810 
	C298.806183,688.844360 296.254395,665.359985 293.616455,641.885315 
	C291.572784,623.698914 289.426666,605.523987 287.378448,587.338074 
	C287.006226,584.032898 286.739563,580.701904 286.679962,577.378235 
	C286.537384,569.423523 289.206696,565.998291 296.989471,564.700867 
	C318.055603,561.188965 338.635193,555.819458 358.912720,549.162476 
	C379.986572,542.243958 400.732361,534.404297 420.536621,524.476074 
	C435.988953,516.729553 443.444000,522.724426 443.026001,538.754822 
	C442.613953,554.555359 443.079224,570.383423 443.366089,586.195618 
	C443.509888,594.121826 440.058472,599.447266 433.022888,602.861633 
	C403.957031,616.967163 374.962677,631.220764 345.856323,645.241943 
	C340.076630,648.026123 337.355438,652.043091 337.236176,658.485657 
	C336.650665,690.116150 336.076324,721.749512 335.083984,753.368896 
	C334.154297,782.991821 333.463196,812.616394 332.867432,842.247070 
	C332.264954,872.213318 331.192535,902.169983 330.359985,932.131775 
	C330.320251,933.561523 329.849823,935.088806 331.147980,936.969543 
	C337.684753,929.023132 344.105927,921.258484 350.483337,913.457947 
	C394.770203,859.288025 439.046326,805.109314 483.330292,750.937012 
	C493.026794,739.075378 502.741089,727.228333 512.723572,715.187256 
	C513.000000,723.020935 513.000000,731.041809 512.713440,739.700867 
	C510.377411,742.739197 508.282227,745.101990 506.285248,747.545105 
	C458.551605,805.940674 410.817810,864.336243 363.109802,922.752808 
	C348.367920,940.803711 333.701172,958.915894 319.000000,977.000000 
	C317.611115,977.000000 316.222198,977.000000 314.323029,976.538879 
	C314.627319,943.131714 315.380585,910.183960 316.276367,877.240112 
	C316.959412,852.120667 318.091644,827.010925 318.531799,801.888245 
	C318.983765,776.089783 319.496490,750.300720 320.458893,724.513245 
	C321.272095,702.725098 321.507477,680.911438 321.720764,659.106323 
	C321.849548,645.939148 327.310547,636.794128 339.449890,631.036377 
	C367.439728,617.760620 395.178772,603.956909 423.084198,590.501526 
	C426.551941,588.829407 428.003571,586.736633 427.897736,582.814636 
	C427.605560,571.990051 427.729126,561.154785 427.611694,550.324585 
	C427.574463,546.894714 427.371216,543.455444 426.323364,540.229919 
	C424.037445,539.871826 422.517029,541.072998 420.863831,541.764832 
	C412.260925,545.365173 403.742859,549.178101 395.070282,552.600342 
	C366.522552,563.865540 337.402771,573.250183 307.105621,578.603638 
	C303.487854,579.242859 302.334778,580.570251 302.838623,584.633911 
	C305.232971,603.944519 307.137634,623.315613 309.242615,642.662354 
	C311.509064,663.493286 313.193451,684.413208 316.317139,705.115540 
	C318.180786,717.466736 315.366028,726.820923 306.557831,735.728760 
	C295.099243,747.316895 284.753326,760.011353 274.029907,772.317993 
	C268.170349,779.042664 261.280670,779.354492 255.284821,772.639648 
	C242.413864,758.225464 229.648880,743.716431 216.882736,729.209045 
	C213.470551,725.331482 211.279877,720.892822 211.830017,715.547546 
	C212.579300,708.267761 213.440277,700.999451 214.259644,693.726929 
	C216.046860,677.863892 217.883041,662.006165 219.616302,646.137207 
	C221.837585,625.800415 223.793442,605.432129 226.293976,585.130371 
	C226.851791,580.601624 225.377380,579.152649 221.446518,578.438049 
	C215.230408,577.307861 209.026703,576.069397 202.874908,574.632080 
	C170.158783,566.988220 138.799545,555.419495 108.156387,541.780396 
	C106.435837,541.014587 104.814774,539.497925 102.384529,540.274658 
	C102.250664,541.201172 102.070633,542.164673 101.977226,543.136536 
	C100.731125,556.101257 101.804123,569.115845 101.148949,582.084045 
	C100.918190,586.651794 102.650391,588.911255 106.652489,590.834412 
	C134.874557,604.395691 162.986389,618.186279 191.138229,631.893799 
	C201.784012,637.077454 206.950882,645.632568 207.228806,657.410645 
	C207.731583,678.716797 208.406174,700.018738 208.940323,721.324158 
	C210.016983,764.269104 211.025497,807.215820 212.105545,850.160706 
	C212.733536,875.131042 213.509888,900.097778 214.098175,925.069031 
	C214.505905,942.376770 214.706726,959.689514 215.000000,977.000000 
	C213.611115,977.000000 212.222214,977.000000 210.240417,976.713135 
	C208.537857,974.973022 207.469879,973.485596 206.312332,972.071472 
	C183.113739,943.731201 159.874283,915.424438 136.705353,887.059937 
	C104.794296,847.992981 72.887589,808.922241 41.075863,769.774414 
	C27.642962,753.243713 13.582331,737.216003 1.000000,720.000000 
	C1.000000,715.975464 1.000000,711.950928 1.000000,707.463196 
z"/>
</svg>